HIERARCHY
ROOT Hips
{
	OFFSET 0.00000 0.00000 0.00000
	CHANNELS 6 Xposition Yposition Zposition Zrotation Yrotation Xrotation 
	JOINT LHipJoint
	{
		OFFSET 0 0 0
		CHANNELS 3 Zrotation Yrotation Xrotation
		JOINT LeftUpLeg
		{
			OFFSET 1.57358 -1.76629 0.73362
			CHANNELS 3 Zrotation Yrotation Xrotation
			JOINT LeftLeg
			{
				OFFSET 2.40600 -6.61045 0.00000
				CHANNELS 3 Zrotation Yrotation Xrotation
				JOINT LeftFoot
				{
					OFFSET 2.66168 -7.31291 0.00000
					CHANNELS 3 Zrotation Yrotation Xrotation
					JOINT LeftToeBase
					{
						OFFSET 0.20870 -0.57341 2.12506
						CHANNELS 3 Zrotation Yrotation Xrotation
						End Site
						{
							OFFSET 0.00000 -0.00000 1.10557
						}
					}
				}
			}
		}
	}
	JOINT RHipJoint
	{
		OFFSET 0 0 0
		CHANNELS 3 Zrotation Yrotation Xrotation
		JOINT RightUpLeg
		{
			OFFSET -1.49299 -1.76629 0.73362
			CHANNELS 3 Zrotation Yrotation Xrotation
			JOINT RightLeg
			{
				OFFSET -2.43663 -6.69460 0.00000
				CHANNELS 3 Zrotation Yrotation Xrotation
				JOINT RightFoot
				{
					OFFSET -2.62959 -7.22474 0.00000
					CHANNELS 3 Zrotation Yrotation Xrotation
					JOINT RightToeBase
					{
						OFFSET -0.25784 -0.70841 2.21862
						CHANNELS 3 Zrotation Yrotation Xrotation
						End Site
						{
							OFFSET -0.00000 -0.00000 1.16452
						}
					}
				}
			}
		}
	}
	JOINT LowerBack
	{
		OFFSET 0 0 0
		CHANNELS 3 Zrotation Yrotation Xrotation
		JOINT Spine
		{
			OFFSET -0.00034 2.12399 -0.25450
			CHANNELS 3 Zrotation Yrotation Xrotation
			JOINT Spine1
			{
				OFFSET 0.05594 2.14379 -0.03318
				CHANNELS 3 Zrotation Yrotation Xrotation
				JOINT Neck
				{
					OFFSET 0 0 0
					CHANNELS 3 Zrotation Yrotation Xrotation
					JOINT Neck1
					{
						OFFSET -0.09835 1.62725 0.24211
						CHANNELS 3 Zrotation Yrotation Xrotation
						JOINT Head
						{
							OFFSET 0.10849 1.66041 -0.22648
							CHANNELS 3 Zrotation Yrotation Xrotation
							End Site
							{
								OFFSET 0.04385 1.68267 -0.10541
							}
						}
					}
				}
				JOINT LeftShoulder
				{
					OFFSET 0 0 0
					CHANNELS 3 Zrotation Yrotation Xrotation
					JOINT LeftArm
					{
						OFFSET 3.29108 0.79398 -0.68179
						CHANNELS 3 Zrotation Yrotation Xrotation
						JOINT LeftForeArm
						{
							OFFSET 5.15310 -0.00000 -0.00000
							CHANNELS 3 Zrotation Yrotation Xrotation
							JOINT LeftHand
							{
								OFFSET 3.75138 -0.00000 -0.00000
								CHANNELS 3 Zrotation Yrotation Xrotation
								JOINT LeftFingerBase
								{
									OFFSET 0 0 0
									CHANNELS 3 Zrotation Yrotation Xrotation
									JOINT LeftHandIndex1
									{
										OFFSET 0.52917 -0.00000 0.00000
										CHANNELS 3 Zrotation Yrotation Xrotation
										End Site
										{
											OFFSET 0.42663 -0.00000 0.00000
										}
									}
								}
								JOINT LThumb
								{
									OFFSET 0 0 0
									CHANNELS 3 Zrotation Yrotation Xrotation
									End Site
									{
										OFFSET 0.43315 -0.00000 0.43315
									}
								}
							}
						}
					}
				}
				JOINT RightShoulder
				{
					OFFSET 0 0 0
					CHANNELS 3 Zrotation Yrotation Xrotation
					JOINT RightArm
					{
						OFFSET -3.07414 1.06285 -0.44338
						CHANNELS 3 Zrotation Yrotation Xrotation
						JOINT RightForeArm
						{
							OFFSET -5.29613 -0.00000 0.00000
							CHANNELS 3 Zrotation Yrotation Xrotation
							JOINT RightHand
							{
								OFFSET -3.76144 -0.00000 -0.00000
								CHANNELS 3 Zrotation Yrotation Xrotation
								JOINT RightFingerBase
								{
									OFFSET 0 0 0
									CHANNELS 3 Zrotation Yrotation Xrotation
									JOINT RightHandIndex1
									{
										OFFSET -0.74732 -0.00000 0.00000
										CHANNELS 3 Zrotation Yrotation Xrotation
										End Site
										{
											OFFSET -0.60251 -0.00000 0.00000
										}
									}
								}
								JOINT RThumb
								{
									OFFSET 0 0 0
									CHANNELS 3 Zrotation Yrotation Xrotation
									End Site
									{
										OFFSET -0.61171 -0.00000 0.61171
									}
								}
							}
						}
					}
				}
			}
		}
	}
}
MOTION
Frames: 4
Frame Time: .0083333
9.269800 17.342000 -29.458600 4.985900 3.114400 0.468700 0.000000 0.000000 0.000000 -28.921700 1.057300 10.250900 1.660700 8.120500 23.080600 0.112300 -9.535500 -8.495200 0.657700 -5.187200 -14.443300 0.000000 0.000000 0.000000 15.210600 8.713000 -23.694000 -0.890800 -6.015900 16.830600 -0.043900 1.579800 -3.723500 -0.200900 2.885900 -7.961300 -6.234800 -1.866600 6.855700 1.894500 -2.898800 0.591300 5.741200 -1.362800 -2.822800 -9.224500 -3.832200 -15.756600 4.328000 -3.924600 18.990600 2.511500 -2.062800 8.819000 0.000000 0.000000 0.000000 -85.284400 -4.740000 19.670000 17.885700 -28.010600 -4.495400 -0.000000 -0.000000 6.760300 13.819900 37.685000 8.552100 -7.125000 0.000000 -0.000000 -27.574000 66.518400 -14.776400 0.000000 0.000000 0.000000 87.786200 -4.759900 2.075700 -13.175300 21.543600 -2.517300 0.000000 0.000000 11.096900 -12.882900 10.278100 -2.336900 7.125000 -0.000000 -0.000000 10.019200 -19.523500 6.189400
9.250900 17.363200 -29.260600 4.906300 3.517000 0.309200 0.000000 0.000000 0.000000 -28.685800 0.744000 10.394700 1.824500 8.490500 24.214200 0.001200 -9.998100 -7.029900 0.780300 -5.639800 -15.742800 0.000000 0.000000 0.000000 15.341400 8.829900 -23.164400 -0.954300 -6.220900 17.426600 -0.008000 2.625700 -2.311500 -0.047600 1.408000 -3.872100 -6.234900 -2.026300 6.887500 1.962300 -3.111300 0.595900 5.830300 -1.469600 -2.801300 -9.280600 -3.804700 -15.961500 4.268600 -3.844300 19.250600 2.510300 -2.036800 8.939800 -0.000000 0.000000 0.000000 -85.451200 -4.557500 19.254600 17.811000 -27.914500 -4.460400 -0.000000 -0.000000 7.501300 19.842500 28.722200 9.838200 -7.125000 0.000000 -0.000000 -12.587100 59.761600 -4.579600 -0.000000 0.000000 0.000000 87.785300 -4.811800 1.462400 -12.914000 21.161000 -2.422100 0.000000 0.000000 11.642500 -12.957300 11.831900 -2.701000 7.125000 -0.000000 -0.000000 9.922100 -17.953100 6.478700
9.242200 17.383000 -29.070900 4.799900 3.773200 0.133400 0.000000 0.000000 0.000000 -28.497600 0.460400 10.352000 2.028300 8.924800 25.560500 -0.065900 -9.946600 -5.803400 0.957000 -6.229300 -17.451100 0.000000 0.000000 0.000000 15.455000 8.975000 -22.742900 -0.996200 -6.352000 17.809300 0.025900 3.199800 -0.373100 -0.011500 -0.691700 1.900900 -6.034100 -2.159700 6.917000 1.975500 -3.277200 0.488400 5.748200 -1.547200 -2.916300 -9.467300 -3.645700 -15.577100 4.491500 -3.669700 19.426100 2.645700 -1.952600 8.924900 -0.000000 0.000000 0.000000 -85.555900 -4.014200 19.721900 17.705400 -27.778300 -4.411100 -0.000000 -0.000000 5.495600 15.706400 38.659000 9.963300 -7.125000 0.000000 -0.000000 -26.782400 67.918300 -15.169700 -0.000000 0.000000 0.000000 87.794400 -5.147100 1.041300 -12.679500 20.815800 -2.338200 0.000000 0.000000 12.023600 -13.559500 13.426700 -3.205300 7.125000 -0.000000 -0.000000 9.479600 -16.303800 6.528100
9.240500 17.403200 -28.891200 4.312800 3.764300 0.018800 0.000000 0.000000 0.000000 -28.004500 0.105200 9.995200 2.274800 9.416300 27.106600 -0.112500 -9.309500 -4.248400 1.063600 -6.556600 -18.408300 0.000000 0.000000 0.000000 16.058000 9.097500 -22.440600 -1.037900 -6.479400 18.182000 0.030700 3.139000 0.666200 -0.021200 -0.940400 2.584900 -5.305000 -2.212600 6.947100 2.045700 -3.292500 0.347800 5.417000 -1.553100 -3.113900 -9.523200 -3.559000 -15.144300 4.490100 -3.581900 19.500500 2.670200 -1.922300 8.866100 -0.000000 0.000000 0.000000 -85.634100 -3.704100 18.450100 17.735800 -27.817600 -4.425300 -0.000000 -0.000000 9.215700 13.220800 34.043100 7.492400 -7.125000 0.000000 -0.000000 -24.062600 63.154300 -10.925900 -0.000000 0.000000 0.000000 87.862600 -5.331000 0.381500 -12.445800 20.469800 -2.255800 0.000000 0.000000 12.723100 -13.865600 12.983900 -3.174300 7.125000 -0.000000 -0.000000 9.274100 -16.729900 6.295600
